# xmcd
#
# Track frame offsets: 
#        150
#        17960
#        37390
#        54610
#        68272
#        81920
#        104162
#        121110
#        137720
#        152842
#        166730
#        179227
#        193275
#        208287
#        222607
#        239230
#        251032
#        269007
#        283312
#        300422
#
# Disc length: 4240 seconds
#
# Revision: 3
# Processed by: cddbd v1.5.2PL0 Copyright (c) Steve Scherf et al.
# Submitted via: ExactAudioCopy v1.0b3
#
DISCID=4c108e14
DTITLE=Various Artist - 幻の名盤解放歌集11 ポニーキャニオン編 男が死んで行く時に
DYEAR=1994
DGENRE=Japan-Pops
TTITLE0=安藤昇 - 男が死んで行く時に
TTITLE1=風間ひろしとメロディー・クイーン [詩・曲：藤本卓也] - 君が欲しい
TTITLE2=中川あつしとヨコハマ・セブン [詩・曲：藤本卓也] - まぼろしのブルース
TTITLE3=松井久とシルバー・スターズ - 悲しくないわ
TTITLE4=カラオケ - 悲しくないわ(カラオケ)
TTITLE5=安藤昇 - 港祭り
TTITLE6=敏いとうとハッピー＆ブルー - 銀座八丁光のまつり
TTITLE7=敏いとうとハッピー＆ブルー - ぎんざのお地蔵さん音頭
TTITLE8=安藤昇 - さすらい彼岸花
TTITLE9=宮崎憲二とハーバー・ナイツ [詩・曲：藤本卓也] - 人間砂漠
TTITLE10=宮崎憲二とハーバー・ナイツ [詩・曲：藤本卓也] - 愛の夜明け
TTITLE11=ジューク・ボックス - 君にいかれて
TTITLE12=安藤昇 - 血と命
TTITLE13=榎谷おさむとニュー・フェニックス - いやだ公害
TTITLE14=安藤昇 - 明日はない
TTITLE15=輪島功一 - 炎の男
TTITLE16=安藤昇 - 盛り場二十年
TTITLE17=井上宗孝とシャープ・ファイブ - 田園
TTITLE18=安藤昇 - 黒犬
TTITLE19=安藤昇 - 男が死んで行く時に
EXTD=PCD-1522
EXTT0=
EXTT1=
EXTT2=
EXTT3=
EXTT4=
EXTT5=
EXTT6=
EXTT7=
EXTT8=
EXTT9=
EXTT10=
EXTT11=
EXTT12=
EXTT13=
EXTT14=
EXTT15=
EXTT16=
EXTT17=
EXTT18=
EXTT19=
PLAYORDER=
